<svg width="488" height="438" viewBox="0 0 488 438" fill="none" xmlns="http://www.w3.org/2000/svg">
<g clip-path="url(#clip0_0_1)">
<path d="M28.7013 263.281C34.5968 263.281 39.3761 258.338 39.3761 252.242C39.3761 246.145 34.5968 241.203 28.7013 241.203C22.8058 241.203 18.0265 246.145 18.0265 252.242C18.0265 258.338 22.8058 263.281 28.7013 263.281Z" fill="#E6E7E8"/>
<path d="M300.537 276.685H21.2054C20.7876 276.686 20.3736 276.602 19.9874 276.437C19.6011 276.272 19.2501 276.03 18.9544 275.724C18.6587 275.419 18.4241 275.057 18.2641 274.657C18.104 274.258 18.0216 273.83 18.0216 273.398C18.0216 272.966 18.104 272.538 18.2641 272.139C18.4241 271.74 18.6587 271.377 18.9544 271.072C19.2501 270.767 19.6011 270.525 19.9874 270.36C20.3736 270.195 20.7876 270.11 21.2054 270.111H300.537C301.422 270.162 302.257 270.554 302.878 271.209C303.499 271.864 303.86 272.735 303.892 273.652C303.866 274.079 303.758 274.497 303.575 274.882C303.392 275.266 303.137 275.609 302.825 275.891C302.513 276.173 302.15 276.388 301.758 276.525C301.365 276.661 300.95 276.716 300.537 276.685V276.685Z" fill="#E6E7E8"/>
<path d="M227.277 289.674H21.2054C20.3623 289.674 19.5538 289.328 18.9576 288.712C18.3614 288.095 18.0265 287.259 18.0265 286.387C18.0265 285.515 18.3614 284.679 18.9576 284.063C19.5538 283.446 20.3623 283.1 21.2054 283.1H227.277C228.12 283.1 228.929 283.446 229.525 284.063C230.121 284.679 230.456 285.515 230.456 286.387C230.456 287.259 230.121 288.095 229.525 288.712C228.929 289.328 228.12 289.674 227.277 289.674V289.674Z" fill="#E6E7E8"/>
<path d="M28.7013 170.637C34.5968 170.637 39.3761 165.695 39.3761 159.598C39.3761 153.502 34.5968 148.56 28.7013 148.56C22.8058 148.56 18.0265 153.502 18.0265 159.598C18.0265 165.695 22.8058 170.637 28.7013 170.637Z" fill="#E6E7E8"/>
<path d="M300.537 184.042H21.2054C20.3624 184.042 19.5538 183.696 18.9577 183.079C18.3616 182.463 18.0267 181.627 18.0267 180.755C18.0267 179.883 18.3616 179.047 18.9577 178.431C19.5538 177.814 20.3624 177.468 21.2054 177.468H300.537C301.38 177.468 302.188 177.814 302.784 178.431C303.38 179.047 303.715 179.883 303.715 180.755C303.715 181.627 303.38 182.463 302.784 183.079C302.188 183.696 301.38 184.042 300.537 184.042V184.042Z" fill="#E6E7E8"/>
<path d="M261.638 197.031H21.2054C20.3623 197.031 19.5538 196.685 18.9576 196.068C18.3614 195.452 18.0265 194.616 18.0265 193.744C18.0265 192.872 18.3614 192.036 18.9576 191.419C19.5538 190.803 20.3623 190.457 21.2054 190.457H261.638C262.481 190.457 263.289 190.803 263.886 191.419C264.482 192.036 264.817 192.872 264.817 193.744C264.817 194.616 264.482 195.452 263.886 196.068C263.289 196.685 262.481 197.031 261.638 197.031V197.031Z" fill="#E6E7E8"/>
<path d="M245.319 210.02H21.2054C20.3623 210.02 19.5538 209.674 18.9576 209.057C18.3614 208.441 18.0265 207.605 18.0265 206.733C18.0265 205.861 18.3614 205.025 18.9576 204.408C19.5538 203.792 20.3623 203.446 21.2054 203.446H245.319C246.162 203.446 246.971 203.792 247.567 204.408C248.163 205.025 248.498 205.861 248.498 206.733C248.498 207.605 248.163 208.441 247.567 209.057C246.971 209.674 246.162 210.02 245.319 210.02V210.02Z" fill="#E6E7E8"/>
<path d="M249.956 355.343C293.616 355.343 329.009 318.744 329.009 273.596C329.009 228.448 293.616 191.848 249.956 191.848C206.297 191.848 170.904 228.448 170.904 273.596C170.904 318.744 206.297 355.343 249.956 355.343Z" fill="#6C63FF"/>
<path d="M249.847 302.118C256.085 302.118 261.141 296.889 261.141 290.439C261.141 283.99 256.085 278.761 249.847 278.761C243.61 278.761 238.554 283.99 238.554 290.439C238.554 296.889 243.61 302.118 249.847 302.118Z" fill="#3F3D56"/>
<path d="M249.847 295.829C252.726 295.829 255.06 293.416 255.06 290.439C255.06 287.463 252.726 285.049 249.847 285.049C246.969 285.049 244.635 287.463 244.635 290.439C244.635 293.416 246.969 295.829 249.847 295.829Z" fill="#6C63FF"/>
<path d="M270.811 316.436H229.101C224.971 316.431 221.012 314.732 218.091 311.712C215.171 308.693 213.528 304.598 213.524 300.327V280.552C213.528 276.281 215.171 272.186 218.091 269.166C221.012 266.146 224.971 264.448 229.101 264.443H270.811C274.941 264.448 278.901 266.146 281.821 269.166C284.741 272.186 286.384 276.281 286.389 280.552V300.327C286.384 304.598 284.741 308.692 281.821 311.712C278.9 314.732 274.941 316.431 270.811 316.436V316.436ZM229.101 266.129C225.404 266.134 221.859 267.655 219.244 270.358C216.63 273.062 215.159 276.728 215.155 280.552V300.327C215.159 304.151 216.63 307.817 219.244 310.52C221.859 313.224 225.404 314.745 229.101 314.749H270.811C274.508 314.745 278.053 313.224 280.668 310.52C283.283 307.817 284.753 304.151 284.757 300.327V280.552C284.753 276.728 283.283 273.062 280.668 270.358C278.054 267.655 274.509 266.134 270.811 266.129L229.101 266.129Z" fill="white"/>
<path d="M226.631 305.701H263.653C265.574 305.701 267.477 305.31 269.252 304.549C271.028 303.789 272.641 302.674 273.999 301.269C275.358 299.864 276.436 298.196 277.171 296.36C277.907 294.524 278.285 292.556 278.285 290.569V274.02C278.282 272.185 277.955 270.366 277.32 268.652C279.126 270.058 280.592 271.879 281.601 273.971C282.61 276.064 283.136 278.37 283.136 280.708V297.257C283.136 299.244 282.757 301.212 282.022 303.047C281.286 304.883 280.209 306.551 278.85 307.957C277.491 309.362 275.878 310.476 274.103 311.237C272.327 311.997 270.424 312.388 268.503 312.388H231.481C228.514 312.387 225.618 311.452 223.177 309.708C220.736 307.964 218.865 305.494 217.814 302.625C220.348 304.621 223.446 305.701 226.631 305.701Z" fill="#3F3D56"/>
<path d="M340.003 427.185L330.906 427.184L326.578 390.898L340.005 390.899L340.003 427.185Z" fill="#A0616A"/>
<path d="M340.323 436.999L312.348 436.998V436.632C312.349 433.646 313.496 430.782 315.538 428.67C317.58 426.559 320.349 425.372 323.237 425.372H323.238L328.348 421.363L337.882 425.373L340.324 425.373L340.323 436.999Z" fill="#2F2E41"/>
<path d="M404.372 427.185L413.469 427.184L417.797 390.898L404.37 390.899L404.372 427.185Z" fill="#A0616A"/>
<path d="M404.051 436.999L432.026 436.998V436.632C432.026 433.646 430.879 430.782 428.837 428.67C426.795 426.559 424.026 425.372 421.138 425.372H421.137L416.027 421.363L406.493 425.373L404.051 425.373L404.051 436.999Z" fill="#2F2E41"/>
<path d="M326.178 364.234C326.312 362.163 327.38 350.713 327.38 350.713L329.939 326.429L334.449 262.059L334.743 257.845L358.367 253.155L374.513 245.151L393.703 251.495L408.646 257.29C408.646 257.29 408.672 259.77 408.787 262.767C408.941 266.689 409.209 271.499 409.849 272.749C410.917 274.958 410.648 286.819 410.648 286.819C410.648 286.819 411.71 310.95 413.047 313.596C414.384 316.242 414.653 321.752 414.25 322.857C413.847 323.962 415.587 352.942 415.587 352.942C415.587 352.942 420.053 404.226 417.251 411.959C414.449 419.692 403.861 414.626 403.861 414.626C403.861 414.626 404.373 412.563 401.303 411.59C398.232 410.618 388.88 337.899 388.88 337.899C388.88 337.899 387.14 322.989 385.541 318.716C383.942 314.443 382.47 302.437 382.47 302.437C382.47 302.437 372.593 282.565 372.466 278.146C372.466 278.146 371.173 274.012 369.952 278.563C368.73 283.114 365.128 294.016 365.128 294.016L361.616 307.404L357.484 327.408L354.81 344.25C354.81 344.25 350.806 366.602 350.166 367.568C349.526 368.533 350.166 388.954 350.166 388.954C350.166 388.954 347.07 406.344 342.695 409.381C338.319 412.417 326.727 409.429 326.727 409.429C326.727 409.429 326.043 366.304 326.178 364.234Z" fill="#2F2E41"/>
<path d="M336.256 199.137L341.508 215.496L335.028 223.473L337.881 226.51L335.776 230.803L330.288 275.798L360.379 287.599L370.512 274.461L378.501 287.599L413.32 278.801L404.44 221.423V217.672L401.933 210.428V195.095L408.554 149.452L388.793 142.294L379.345 134.562L376.288 145.437L363.27 143.042L362.931 134.872L352.971 144.604L344.584 147.077L334.542 149.452L333.262 152.759L335.82 152.098L335.405 195.129L336.256 199.137Z" fill="#2F2E41"/>
<path d="M327.262 258.992L332.315 208.407L333.649 187.588L319.504 184.943C319.504 184.943 320.065 199.83 318.212 208.229C316.383 216.517 317.969 257.882 318.082 258.988C317.043 259.948 316.311 261.212 315.982 262.613C315.653 264.013 315.743 265.484 316.24 266.83C316.737 268.176 317.617 269.335 318.765 270.153C319.912 270.97 321.273 271.409 322.666 271.409C324.06 271.41 325.421 270.973 326.569 270.157C327.717 269.34 328.599 268.182 329.097 266.836C329.595 265.49 329.686 264.02 329.358 262.619C329.031 261.219 328.3 259.954 327.262 258.992V258.992Z" fill="#A0616A"/>
<path d="M313.464 218.889L317.398 219.729L330.896 222.62L331.644 222.779L333.237 216.23L335.086 214.193L338.604 195.128L338.789 194.136L344.105 182.388L347.783 147.077L334.106 149.617C334.036 149.69 333.972 149.769 333.908 149.849C331.944 152.151 330.543 155.352 328.253 158.574C320.801 169.059 315.083 194.533 315.306 208.491C315.313 208.715 315.089 208.96 314.82 209.212C313.552 210.417 312.725 212.038 312.478 213.801C312.231 215.564 312.579 217.361 313.464 218.889Z" fill="#2F2E41"/>
<path d="M415.194 258.992L410.14 208.407L408.806 187.588L422.952 184.943C422.952 184.943 422.391 199.83 424.244 208.229C426.073 216.517 424.487 257.882 424.374 258.988C425.413 259.948 426.145 261.212 426.474 262.613C426.803 264.013 426.713 265.484 426.216 266.83C425.719 268.176 424.839 269.335 423.691 270.153C422.544 270.97 421.183 271.409 419.79 271.409C418.396 271.41 417.035 270.973 415.887 270.157C414.739 269.34 413.857 268.182 413.359 266.836C412.861 265.49 412.77 264.02 413.097 262.619C413.425 261.219 414.156 259.954 415.194 258.992V258.992Z" fill="#A0616A"/>
<path d="M428.992 218.889L425.058 219.729L411.56 222.62L410.812 222.779L409.219 216.23L407.37 214.193L403.852 195.128L403.666 194.136L398.351 182.388L399.566 147.077L408.349 149.617C408.42 149.69 408.484 149.769 408.548 149.849C410.511 152.151 411.912 155.352 414.202 158.574C421.655 169.059 427.373 194.533 427.149 208.491C427.143 208.715 427.367 208.96 427.635 209.212C428.904 210.417 429.731 212.038 429.978 213.801C430.225 215.564 429.877 217.361 428.992 218.889V218.889Z" fill="#2F2E41"/>
<path d="M356.505 152.302L362.931 134.873L379.345 134.562L384.792 152.302L404.37 265.396C404.37 265.396 344.392 282.668 345.001 261.906C345.64 240.077 348.527 211.08 348.527 211.08L356.505 152.302Z" fill="#6C63FF"/>
<path d="M370.771 129.998C381.45 129.998 390.108 121.045 390.108 110.002C390.108 98.9589 381.45 90.0066 370.771 90.0066C360.092 90.0066 351.435 98.9589 351.435 110.002C351.435 121.045 360.092 129.998 370.771 129.998Z" fill="#A0616A"/>
<path d="M350.295 95.4965C353.443 91.9534 357.38 85.4676 369.307 82.7441C384.044 79.3787 391.007 93.1455 387.291 93.3711C398.158 96.7741 391.177 120.029 388.062 118.079C388.035 118.06 388.009 118.039 387.985 118.017C386.309 116.741 384.903 115.125 383.852 113.268C382.8 111.411 382.126 109.352 381.87 107.217L381.279 101.714C381.195 106.191 376.769 106.783 372.248 105.134C372.515 104.153 373.025 103.26 373.728 102.545C374.431 101.829 375.302 101.315 376.255 101.054C373.104 104.009 369.1 105.81 364.861 106.181C365.083 105.06 365.535 104.001 366.185 103.075C366.836 102.149 367.671 101.378 368.633 100.814L368.455 100.632C366.689 102.172 364.662 103.359 362.477 104.133C359.985 104.871 356.998 104.472 355.291 102.454C354.831 101.897 354.484 101.251 354.269 100.553C354.638 104.099 352.338 108.147 350.552 107.452C349.065 107.153 348.199 97.8553 350.295 95.4965Z" fill="#2F2E41"/>
<path d="M488 436.996C488 437.128 487.976 437.259 487.927 437.381C487.878 437.503 487.807 437.614 487.717 437.707C487.626 437.8 487.519 437.874 487.401 437.924C487.283 437.975 487.157 438 487.029 438H258.444C258.187 438 257.94 437.894 257.758 437.706C257.576 437.518 257.474 437.263 257.474 436.996C257.474 436.73 257.576 436.475 257.758 436.287C257.94 436.099 258.187 435.993 258.444 435.993H487.029C487.157 435.993 487.283 436.018 487.401 436.068C487.519 436.119 487.626 436.193 487.717 436.286C487.807 436.379 487.878 436.49 487.927 436.612C487.976 436.734 488 436.865 488 436.996Z" fill="#CCCCCC"/>
<path d="M250.598 229.272C242.866 229.272 236.07 232.891 232.222 238.324C236.335 235.229 241.302 233.581 246.39 233.623C258.363 233.623 268.104 242.297 268.104 252.957V261.819H272.313V248.605C272.312 237.945 262.571 229.272 250.598 229.272Z" fill="#3F3D56"/>
<path d="M275.204 266.354H224.708V250.99C224.708 238.595 236.034 228.51 249.956 228.51C263.878 228.51 275.204 238.595 275.204 250.99V266.354ZM226.339 264.668H273.573V250.99C273.573 239.525 262.979 230.197 249.956 230.197C236.933 230.197 226.339 239.525 226.339 250.99V264.668Z" fill="white"/>
<path d="M262.888 260.489H237.024C235.86 260.487 234.745 260.009 233.922 259.158C233.099 258.307 232.636 257.153 232.635 255.95V249.836C232.635 241.311 240.405 234.376 249.956 234.376C259.507 234.376 267.277 241.311 267.277 249.836V255.95C267.276 257.153 266.813 258.307 265.99 259.158C265.167 260.009 264.052 260.487 262.888 260.489V260.489ZM249.956 236.062C241.305 236.062 234.266 242.241 234.266 249.836V255.95C234.267 256.706 234.558 257.431 235.075 257.966C235.592 258.5 236.293 258.801 237.024 258.802H262.888C263.619 258.801 264.32 258.5 264.837 257.966C265.354 257.431 265.645 256.706 265.646 255.95V249.836C265.646 242.241 258.607 236.062 249.956 236.062Z" fill="white"/>
</g>
<defs>
<clipPath id="clip0_0_1">
<rect width="488" height="438" fill="white"/>
</clipPath>
</defs>
</svg>
